# xmcd CD database file
#
# Track frame offsets:
#	150
#	27444
#	41327
#	52325
#	70640
#	93671
#	106971
#	120345
#	136907
#	161860
#	183519
#	198970
#	216053
#	237091
#
# Disc length: 3429 seconds
#
# Revision: 10
# Processed by: cddbd v1.5.1PL0 Copyright (c) Steve Scherf et al.
# Submitted via: CDex 1.51
#
DISCID=c20d630e
DTITLE=綾戸智絵 - Life
DYEAR=2001
DGENRE=Jazz
TTITLE0=New York State Of Mind
TTITLE1=Amazing Grace
TTITLE2=Bye Bye Blackbird
TTITLE3=Tennessee Waltz
TTITLE4=You've Got A Friend
TTITLE5=Love Letters
TTITLE6=Route 66
TTITLE7=I Could Have Danced All Night
TTITLE8=Mr. Bojangles
TTITLE9=Everything Must Change
TTITLE10=For Once In My Life
TTITLE11=Fever
TTITLE12=夜空のムコウ
TTITLE13=Let It Be
EXTD=Chie Ayado: vocal, piano, Hammond B-3 organ\nMotohiko Hino: tapon track 8\nYoshihito Etoh: drums on track 3 and 12\nTomokazu Sugimoto: bass on track 12\nANOINTY MASS CHOIR, K-Wish and Friends ontrack 5 and 14 YEAR: 2001
EXTT0=
EXTT1=
EXTT2=
EXTT3=
EXTT4=
EXTT5=
EXTT6=
EXTT7=
EXTT8=
EXTT9=
EXTT10=
EXTT11=
EXTT12=
EXTT13=
PLAYORDER=
